<svg xmlns="http://www.w3.org/2000/svg" width="24" height="24" viewBox="0 0 24 24" fill="none">
  <g id="Email">
    <g id="Property 1=Dark Grey">
      <g id="Group">
        <path id="Vector" d="M20.525 9.8036C20.525 9.70425 20.5077 9.60543 20.4652 9.51549C20.4257 9.43104 20.3643 9.35392 20.2844 9.28803L19.8699 8.94685V10.6601L20.2841 10.3192C20.3643 10.253 20.4257 10.1762 20.4652 10.0917C20.5074 10.0018 20.525 9.90269 20.525 9.8036ZM20.0409 21.0272L15.1084 15.7175L13.2956 17.2095C12.9732 17.4747 12.5867 17.6077 12.2006 17.6077C11.8146 17.6077 11.4278 17.4747 11.1055 17.2095L9.29314 15.7177L4.36139 21.0266C4.47497 21.0826 4.60226 21.1142 4.73628 21.1142H19.6653C19.8001 21.1142 19.9274 21.0829 20.0409 21.0272ZM15.7878 15.1583L20.525 20.2577V20.2457V11.2596L19.7351 11.9095C19.7181 11.926 19.6997 11.9412 19.68 11.9548L15.7878 15.1583ZM3.87655 20.2577L8.61374 15.1585L4.71429 11.9493C4.69954 11.9386 4.68557 11.9268 4.67212 11.9145L3.87655 11.2596V20.2457V20.2577ZM13.139 10.2666C13.139 10.0146 13.042 9.77406 12.8653 9.59575C12.6964 9.42477 12.4614 9.31915 12.2014 9.31915C11.9422 9.31915 11.7075 9.42529 11.5381 9.59654C11.3681 9.76648 11.2636 10.0039 11.2636 10.2666C11.2636 10.5286 11.3686 10.7657 11.5381 10.937C11.7075 11.1082 11.9422 11.2144 12.2014 11.2144C12.4604 11.2144 12.6953 11.108 12.8645 10.937C13.0415 10.7581 13.139 10.5194 13.139 10.2666ZM14.1706 10.6489C14.2676 10.7453 14.4016 10.8057 14.5491 10.8057C14.6971 10.8057 14.8311 10.7453 14.9273 10.6489C15.0228 10.5516 15.0825 10.4162 15.0825 10.2666C15.0825 9.46242 14.7597 8.73429 14.2386 8.20774C13.7186 7.68041 12.9978 7.35491 12.2009 7.35491C11.4051 7.35491 10.6845 7.68119 10.1635 8.20774C9.64164 8.73325 9.31953 9.46163 9.31953 10.2666C9.31953 11.0619 9.63388 11.7822 10.1428 12.3062L10.1635 12.3258C10.6845 12.8523 11.4051 13.1786 12.2009 13.1786C12.6024 13.1786 12.9825 13.0973 13.3253 12.9506C13.6823 12.7979 14.0042 12.5723 14.2722 12.2928C14.4404 12.1182 14.7175 12.1143 14.8903 12.2842C15.0631 12.4541 15.067 12.7341 14.8989 12.9088C14.5524 13.2701 14.1325 13.5634 13.6642 13.7637C13.212 13.9572 12.7168 14.0644 12.2009 14.0644C11.1637 14.0644 10.224 13.6387 9.5441 12.9517L9.52107 12.9266C8.85435 12.2405 8.44298 11.3012 8.44298 10.2666C8.44298 9.22058 8.86418 8.27075 9.54488 7.58263C10.224 6.89477 11.1637 6.46914 12.2009 6.46914C13.2366 6.46914 14.1762 6.89477 14.8572 7.58263C15.5379 8.26892 15.9591 9.21849 15.9591 10.2666C15.9591 10.6585 15.8008 11.0144 15.5459 11.2724C15.289 11.5315 14.9369 11.6915 14.5491 11.6915C14.2091 11.6915 13.8966 11.5697 13.6526 11.3665C13.6008 11.4361 13.5444 11.5017 13.4839 11.5629C13.1558 11.8944 12.7018 12.1001 12.2014 12.1001C11.7008 12.1001 11.247 11.8946 10.9187 11.5629C10.5904 11.2311 10.387 10.7725 10.387 10.2666C10.387 9.76256 10.5906 9.30398 10.9195 8.97142C11.247 8.63887 11.7008 8.43337 12.2014 8.43337C12.7 8.43337 13.1533 8.63887 13.4824 8.97064L13.4847 8.97299C13.8288 9.32176 14.0153 9.7819 14.0153 10.2737C14.0208 10.4185 14.0686 10.5448 14.1706 10.6489ZM21.4016 9.81458V20.2457C21.4016 20.6528 21.2613 21.0295 21.0274 21.3286L21.0207 21.3375L21.0171 21.3419L21.0137 21.3461L21.0067 21.3545C20.9705 21.3992 20.932 21.4421 20.8916 21.4831L20.8893 21.4855C20.5742 21.8031 20.1408 22 19.6653 22H4.73628C4.25894 22 3.82403 21.8026 3.50968 21.485C3.19533 21.1673 3 20.7289 3 20.2457V9.81458C3 9.5785 3.04476 9.35339 3.14566 9.13849C3.24113 8.93508 3.38265 8.75416 3.56608 8.60305L4.53215 7.80799V5.67722C4.53215 5.19433 4.72722 4.75511 5.04157 4.43745C5.35747 4.12006 5.79134 3.92266 6.26843 3.92266H9.25304L11.1055 2.39792C11.4278 2.13281 11.8144 2 12.2006 2C12.5869 2 12.9732 2.13281 13.2956 2.39792L15.1483 3.92266H18.1336C18.6102 3.92266 19.0446 4.12006 19.359 4.43745C19.6746 4.75667 19.8699 5.19564 19.8699 5.67722V7.80826L20.8355 8.60305C21.0189 8.75416 21.1602 8.93482 21.2559 9.13849C21.3565 9.35313 21.4016 9.57771 21.4016 9.81458ZM3.87655 9.8036C3.87655 9.90295 3.89388 10.0018 3.93631 10.0917C3.9759 10.1762 4.03721 10.2533 4.11716 10.3192L4.53215 10.6606V8.94659L4.11716 9.28803C4.03721 9.35392 3.9759 9.43104 3.93631 9.51549C3.89414 9.60543 3.87655 9.70452 3.87655 9.8036ZM5.4087 11.3822L9.51253 14.7598L9.54565 14.7873L11.6566 16.5246C11.8162 16.6561 12.0087 16.722 12.2006 16.722C12.3926 16.722 12.5849 16.6558 12.7445 16.5246L14.8652 14.7792L14.8657 14.7786L14.8743 14.7716L14.8831 14.7645L18.9934 11.3814V5.67722C18.9934 5.43774 18.8969 5.21995 18.7419 5.06256C18.5862 4.90596 18.3706 4.80844 18.1336 4.80844H6.26843C6.03144 4.80844 5.81592 4.90596 5.66017 5.06256C5.50546 5.22048 5.4087 5.43826 5.4087 5.67722V11.3822ZM13.7649 3.92266L12.7445 3.0829C12.5849 2.95166 12.3929 2.88577 12.2006 2.88577C12.0084 2.88577 11.8162 2.95166 11.6566 3.0829L10.6364 3.92266H13.7649Z" fill="currentColor" />
      </g>
    </g>
  </g>
</svg>
