<svg xmlns="http://www.w3.org/2000/svg" width="24" height="24" viewBox="0 0 24 24" fill="none">
  <g id="Plus">
    <g id="Color=Dark Green">
      <g id="Group 25184">
        <path id="Vector" fill-rule="evenodd" clip-rule="evenodd" d="M12 22C11.4125 22 10.9318 21.5194 10.9318 20.9318V18.6519V13.0682H5.34808H3.06819C2.48061 13.0682 2 12.5875 2 12C2 11.4125 2.48061 10.9318 3.06819 10.9318H5.34808H10.9318V5.34808V3.06819C10.9318 2.48061 11.4124 2 12 2C12.5875 2 13.0682 2.48061 13.0682 3.06819V5.34808V10.9318H18.6519H20.9318C21.5194 10.9318 22 11.4124 22 12C22 12.5875 21.5194 13.0682 20.9318 13.0682H18.6519H13.0682V18.6519V20.9318C13.0682 21.5194 12.5875 22 12 22Z" fill="currentColor" />
      </g>
    </g>
  </g>
</svg>
