<svg xmlns="http://www.w3.org/2000/svg" width="24" height="24" viewBox="0 0 24 24" fill="none">
  <g id="Share">
    <g id="Color=Dark Green 24">
      <g id="Group">
        <path id="Vector" d="M3.63599 12.0011V19.2749C3.63599 20.7828 4.85479 22.0016 6.36268 22.0016H17.2734C18.7812 22.0016 20 20.7828 20 19.2749V12.0011C20 11.4972 19.5938 11.0909 19.0898 11.0909C18.5859 11.0909 18.1796 11.4972 18.1796 12.0011V19.2749C18.1796 19.7749 17.7734 20.1812 17.2695 20.1851H6.36659C5.86656 20.1851 5.46029 19.7788 5.45639 19.2749V12.0011C5.45639 11.4972 5.05012 11.0909 4.54619 11.0909C4.04226 11.0909 3.63599 11.4972 3.63599 12.0011Z" fill="currentColor" />
        <path id="Vector_2" d="M16.0975 5.90314L12.4645 2.26625C12.109 1.91076 11.5347 1.91076 11.1793 2.26625L7.54237 5.90314C7.18689 6.25863 7.18689 6.83287 7.54237 7.18836C7.89786 7.54384 8.4721 7.54384 8.82759 7.18836L11.8199 4.19603L14.8122 7.18836C15.1677 7.54384 15.742 7.54384 16.0975 7.18836C16.453 6.83287 16.453 6.25863 16.0975 5.90314Z" fill="currentColor" />
        <path id="Vector_3" d="M10.9098 2.91078V14.7278C10.9098 15.2317 11.3161 15.638 11.82 15.638C12.3239 15.638 12.7302 15.2317 12.7302 14.7278V2.91078C12.7302 2.40685 12.3239 2.00058 11.82 2.00058C11.3161 2.00058 10.9098 2.40685 10.9098 2.91078Z" fill="currentColor" />
      </g>
    </g>
  </g>
</svg>
