<svg xmlns="http://www.w3.org/2000/svg" width="22" height="22" viewBox="0 0 22 22" fill="none">
  <path d="M12 4.00061C12.855 4.00061 13.732 4.02261 14.582 4.05861L15.586 4.10661L16.547 4.16361L17.447 4.22461L18.269 4.28861C19.161 4.35689 20.0004 4.73756 20.6395 5.36365C21.2786 5.98975 21.6764 6.82115 21.763 7.71161L21.803 8.13661L21.878 9.04661C21.948 9.98961 22 11.0176 22 12.0006C22 12.9836 21.948 14.0116 21.878 14.9546L21.803 15.8646C21.79 16.0106 21.777 16.1516 21.763 16.2896C21.6764 17.1802 21.2784 18.0118 20.6391 18.6379C19.9999 19.264 19.1602 19.6446 18.268 19.7126L17.448 19.7756L16.548 19.8376L15.586 19.8946L14.582 19.9426C13.7218 19.98 12.861 19.9993 12 20.0006C11.139 19.9993 10.2782 19.98 9.418 19.9426L8.414 19.8946L7.453 19.8376L6.553 19.7756L5.731 19.7126C4.83895 19.6443 3.99955 19.2637 3.36047 18.6376C2.72139 18.0115 2.32357 17.1801 2.237 16.2896L2.197 15.8646L2.122 14.9546C2.04554 13.9718 2.00484 12.9864 2 12.0006C2 11.0176 2.052 9.98961 2.122 9.04661L2.197 8.13661C2.21 7.99061 2.223 7.84961 2.237 7.71161C2.32354 6.82131 2.72122 5.99003 3.36009 5.36396C3.99897 4.73789 4.83813 4.35712 5.73 4.28861L6.551 4.22461L7.451 4.16361L8.413 4.10661L9.417 4.05861C10.2775 4.02125 11.1387 4.00191 12 4.00061ZM12 6.00061C11.175 6.00061 10.326 6.02261 9.5 6.05661L8.522 6.10361L7.583 6.15861L6.701 6.21861L5.893 6.28161C5.46833 6.31174 5.06804 6.49126 4.76309 6.78834C4.45814 7.08542 4.26822 7.48088 4.227 7.90461C4.11 9.11361 4 10.6186 4 12.0006C4 13.3826 4.11 14.8876 4.227 16.0966C4.312 16.9686 5.004 17.6466 5.893 17.7196L6.701 17.7816L7.583 17.8416L8.522 17.8976L9.5 17.9446C10.326 17.9786 11.175 18.0006 12 18.0006C12.825 18.0006 13.674 17.9786 14.5 17.9446L15.478 17.8976L16.417 17.8426L17.299 17.7826L18.107 17.7196C18.5317 17.6895 18.932 17.51 19.2369 17.2129C19.5419 16.9158 19.7318 16.5204 19.773 16.0966C19.89 14.8876 20 13.3826 20 12.0006C20 10.6186 19.89 9.11361 19.773 7.90461C19.7318 7.48088 19.5419 7.08542 19.2369 6.78834C18.932 6.49126 18.5317 6.31174 18.107 6.28161L17.299 6.21961L16.417 6.15961L15.478 6.10361L14.5 6.05661C13.6671 6.02078 12.8336 6.00211 12 6.00061ZM10 9.57561C9.99994 9.47788 10.0237 9.3816 10.0694 9.29517C10.115 9.20873 10.181 9.13475 10.2618 9.07965C10.3425 9.02455 10.4354 8.99001 10.5326 8.97902C10.6297 8.96804 10.728 8.98094 10.819 9.01661L10.9 9.05661L15.1 11.4806C15.1836 11.5289 15.2544 11.5966 15.3063 11.6781C15.3581 11.7595 15.3896 11.8523 15.3979 11.9485C15.4062 12.0447 15.3912 12.1415 15.3542 12.2306C15.3171 12.3198 15.2591 12.3987 15.185 12.4606L15.1 12.5206L10.9 14.9456C10.8154 14.9946 10.72 15.0222 10.6223 15.0259C10.5246 15.0297 10.4274 15.0095 10.3393 14.9671C10.2511 14.9247 10.1747 14.8614 10.1166 14.7827C10.0585 14.704 10.0205 14.6123 10.006 14.5156L10 14.4256V9.57561Z" fill="currentColor"/>
</svg>
